<svg width="600" height="600" viewBox="0 0 600 600" fill="none" xmlns="http://www.w3.org/2000/svg">
<path d="M321.365 287.057C318.01 287.057 315.297 284.343 315.297 281.07C315.297 277.798 318.01 275 321.365 275C324.718 275 327.348 277.715 327.348 281.07C327.348 284.426 324.635 287.057 321.365 287.057Z" fill="black"/>
<path d="M369.688 281.07C369.688 284.343 372.401 287.057 375.756 287.057C379.026 287.057 381.74 284.426 381.74 281.07C381.74 277.715 379.109 275 375.756 275C372.401 275 369.688 277.798 369.688 281.07Z" fill="black"/>
<path d="M326.542 291.267H316.109V324.625H326.542V291.267Z" fill="black"/>
<path d="M364.807 276.475H335.266V324.63H345.698V306.435H361.777V297.332H345.698V285.577H364.807V276.475Z" fill="black"/>
<path d="M380.932 291.267H370.5V324.625H380.932V291.267Z" fill="black"/>
<path d="M255.38 297.338V291.262H261.432V297.327H267.495V299.25C267.495 301.469 267.307 304.1 266.87 306.169C266.63 307.326 266.261 308.472 265.828 309.577C265.385 310.707 264.875 311.786 264.318 312.755C263.594 314.021 262.755 315.235 261.781 316.377C261.5 316.705 261.229 317.028 260.927 317.346C260.636 317.664 260.328 317.966 260.016 318.263C256.135 321.999 251.083 324.333 245.797 324.87C245.161 324.932 243.88 325 243.245 325C242.609 325 241.333 324.932 240.698 324.87C235.411 324.333 230.359 321.999 226.479 318.263C226.3 318.087 226.122 317.913 225.945 317.736L225.833 317.623C225.744 317.532 225.655 317.44 225.568 317.346C225.418 317.188 225.275 317.029 225.136 316.868L224.992 316.703L224.713 316.377C223.745 315.235 222.901 314.021 222.177 312.755C221.625 311.786 221.114 310.702 220.672 309.577C220.234 308.472 219.87 307.326 219.625 306.169C219.188 304.106 219 301.469 219 299.25V276.48H231.12V297.338C231.12 297.338 231.12 298.937 231.141 299.458C231.167 300.177 231.193 300.881 231.266 301.579C231.469 303.455 231.88 305.226 232.734 306.732C232.909 307.038 233.084 307.333 233.274 307.62C233.321 307.692 233.37 307.762 233.42 307.833C233.456 307.884 233.493 307.936 233.531 307.988C235.354 310.421 238.125 312.245 241.589 312.755C242 312.813 242.833 312.865 243.25 312.865C243.482 312.865 243.842 312.85 244.187 312.827C244.463 312.808 244.729 312.783 244.911 312.755C248.37 312.245 251.146 310.421 252.969 307.988C253.271 307.587 253.521 307.164 253.766 306.732C254.62 305.226 255.037 303.455 255.235 301.579C255.307 300.881 255.333 300.177 255.36 299.458C255.369 299.217 255.374 298.745 255.377 298.308C255.38 297.8 255.38 297.338 255.38 297.338Z" fill="black"/>
<path d="M261.438 280.643H256.891V285.192H261.438V280.643Z" fill="black"/>
<path d="M262.953 276.094H265.985V279.127H262.953V276.094Z" fill="black"/>
<path d="M267.5 291.257H261.438V285.197H267.5V291.257Z" fill="black"/>
<path d="M307.385 324.63H297.026V305.018C297.026 305.018 297.026 304.808 297.024 304.582C297.023 304.399 297.02 304.206 297.016 304.106V304.092C297.005 303.789 296.994 303.492 296.963 303.194C296.88 302.392 296.703 301.626 296.333 300.98L296.315 300.947C296.211 300.771 296.112 300.6 295.989 300.438C295.203 299.391 294.015 298.609 292.526 298.39C292.349 298.359 291.99 298.338 291.813 298.338C291.635 298.343 291.276 298.364 291.099 298.39C289.609 298.609 288.416 299.391 287.635 300.438C287.505 300.615 287.395 300.792 287.291 300.98C286.927 301.626 286.744 302.392 286.661 303.194C286.625 303.496 286.614 303.799 286.604 304.106C286.599 304.33 286.599 305.018 286.599 305.018V324.594H276.234V291.236H286.219V294.269C286.219 294.269 289.771 289.84 296.865 290.152C303.239 290.434 307.385 295.331 307.385 301.98V324.63Z" fill="black"/>
</svg>
