<svg xmlns="http://www.w3.org/2000/svg" viewBox="0 0 64 64" role="img" aria-label="Jesareko">
  <defs>
    <linearGradient id="g" x1="10" y1="8" x2="54" y2="58" gradientUnits="userSpaceOnUse">
      <stop offset="0" stop-color="#1B8A55"/>
      <stop offset="0.55" stop-color="#0F6B3F"/>
      <stop offset="1" stop-color="#0B4F31"/>
    </linearGradient>
    <linearGradient id="shine" x1="16" y1="10" x2="48" y2="54" gradientUnits="userSpaceOnUse">
      <stop offset="0" stop-color="#FFFFFF" stop-opacity="0.82"/>
      <stop offset="0.45" stop-color="#E8F3EC" stop-opacity="0.28"/>
      <stop offset="1" stop-color="#FFFFFF" stop-opacity="0"/>
    </linearGradient>
  </defs>
  <rect x="6" y="6" width="52" height="52" rx="18" fill="url(#g)"/>
  <rect x="8" y="8" width="48" height="48" rx="16" fill="none" stroke="#FFFFFF" stroke-opacity="0.36" stroke-width="2"/>
  <path d="M17 31.5C20.8 23.6 25.9 19.7 32 19.7c6.1 0 11.2 3.9 15 11.8-3.8 7.9-8.9 11.8-15 11.8-6.1 0-11.2-3.9-15-11.8Z" fill="#F8FFF9" fill-opacity="0.96"/>
  <circle cx="32" cy="31.5" r="7.5" fill="#0B4F31"/>
  <circle cx="32" cy="31.5" r="3.2" fill="#25D366"/>
  <path d="M35.5 16.5v17.8c0 5.9-3.8 9.6-9.5 9.6-2.4 0-4.7-.7-6.5-2l2.8-5.1c1 .7 2.1 1.1 3.4 1.1 2.1 0 3.3-1.3 3.3-3.8V16.5h6.5Z" fill="#F8FFF9"/>
  <path d="M12 14c9.8 1.2 18.4-.4 25.8-4.7" fill="none" stroke="url(#shine)" stroke-width="3" stroke-linecap="round"/>
</svg>
